<?xml version="1.0" standalone="no"?>
<!DOCTYPE svg PUBLIC "-//W3C//DTD SVG 20010904//EN"
 "http://www.w3.org/TR/2001/REC-SVG-20010904/DTD/svg10.dtd">
<svg version="1.0" xmlns="http://www.w3.org/2000/svg"
 width="484.000000pt" height="480.000000pt" viewBox="0 0 484.000000 480.000000"
 preserveAspectRatio="xMidYMid meet">

<g transform="translate(0.000000,480.000000) scale(0.100000,-0.100000)"
fill="#000000" stroke="none">
<path d="M2215 4794 c-195 -27 -267 -40 -365 -64 -643 -160 -1188 -577 -1514
-1159 -141 -250 -232 -523 -277 -825 -24 -167 -26 -478 -3 -651 130 -996 897
-1826 1869 -2024 726 -147 1453 31 2020 496 404 331 696 804 810 1313 77 341
75 759 -4 1085 -106 436 -320 817 -631 1125 -384 380 -804 595 -1340 686 -91
15 -493 28 -565 18z m200 -216 c-4 -101 -8 -184 -9 -185 -4 -5 -260 -22 -265
-17 -14 13 -77 356 -67 360 26 9 159 22 250 23 l98 1 -7 -182z m135 168 c-51
-27 -70 -29 -70 -7 0 18 6 21 48 21 45 -1 46 -1 22 -14z m265 -17 c148 -23
195 -36 195 -53 0 -8 -20 -85 -45 -172 -25 -87 -44 -163 -41 -169 3 -9 -11 -8
-52 1 -66 16 -235 40 -340 50 -69 6 -73 8 -68 28 3 11 6 44 6 71 l0 50 80 34
c44 19 80 38 80 43 0 5 -5 18 -10 29 -10 19 -12 18 -58 -5 -79 -39 -92 -41
-92 -13 0 21 12 30 80 60 59 27 80 41 80 55 0 21 -4 21 185 -9z m-785 -4 c0
-2 -21 -38 -46 -80 -28 -47 -50 -73 -57 -69 -33 19 -138 96 -135 100 6 5 200
53 221 53 9 1 17 -1 17 -4z m1141 -84 c174 -59 389 -157 389 -178 0 -8 -170
-285 -184 -300 -8 -9 -33 -1 -106 33 -52 25 -141 62 -198 81 -81 28 -102 39
-98 52 3 9 19 68 37 131 17 63 34 118 38 122 3 3 23 -8 44 -26 l39 -32 -32
-108 c-33 -114 -33 -136 -1 -136 21 0 28 19 77 198 l17 62 -74 70 c-41 38 -71
69 -68 70 4 0 58 -17 120 -39z m-1417 10 c5 -7 63 -296 69 -340 1 -9 -29 -26
-83 -48 -120 -47 -117 -46 -123 -24 -3 13 -22 24 -58 35 -86 25 -84 23 -65
106 9 40 15 74 14 76 -2 1 -33 10 -70 20 -37 11 -68 23 -69 29 -1 11 157 84
276 126 87 31 101 33 109 20z m292 -115 c8 -52 -2 -58 -36 -21 -23 25 -23 25
-4 60 22 41 31 32 40 -39z m-161 -1 c19 -15 19 -16 1 -50 -11 -19 -22 -35 -26
-35 -4 0 -11 17 -15 38 -3 20 -9 48 -12 61 -5 20 -4 22 13 12 11 -6 28 -18 39
-26z m-600 -135 c-14 -41 -22 -77 -18 -81 5 -3 35 -16 67 -28 33 -12 63 -24
67 -27 4 -2 -2 -36 -13 -75 -16 -58 -17 -73 -7 -80 7 -4 11 -10 9 -12 -3 -2
-36 -25 -75 -52 -38 -26 -88 -62 -110 -80 -36 -27 -46 -31 -92 -27 l-53 4 0
84 0 84 -80 0 -80 0 0 43 c0 23 4 47 8 52 30 42 386 284 399 271 2 -1 -8 -36
-22 -76z m750 28 c41 -29 74 -56 74 -59 1 -4 -29 -12 -66 -19 -38 -7 -97 -21
-132 -31 -36 -10 -66 -17 -67 -16 -5 5 101 176 109 177 5 0 42 -24 82 -52z
m-616 -5 c20 -5 22 -10 17 -41 -8 -51 -18 -57 -67 -43 -30 9 -39 16 -35 28 3
8 9 26 12 39 6 25 26 30 73 17z m2308 -54 c126 -84 333 -251 333 -269 0 -7
-257 -243 -270 -248 -5 -2 -45 28 -89 66 -43 37 -119 95 -168 127 -48 32 -92
62 -97 66 -4 4 2 26 15 48 l22 41 104 -7 c57 -3 103 -3 103 1 0 3 -21 47 -46
97 -43 88 -45 92 -29 116 20 29 23 29 122 -38z m-1102 -29 c509 -59 960 -299
1287 -688 293 -348 450 -780 450 -1242 0 -509 -185 -971 -535 -1337 -549 -574
-1385 -757 -2120 -464 -419 167 -781 491 -994 891 -153 288 -225 582 -225 920
1 219 26 379 93 587 182 569 637 1035 1202 1232 133 46 167 52 92 17 -56 -26
-110 -76 -83 -76 9 0 49 16 89 35 74 35 131 43 174 25 25 -11 17 -12 -70 -14
-77 -1 -138 -27 -116 -49 11 -11 81 -1 124 18 34 15 15 -11 -33 -44 -67 -45
-212 -191 -208 -209 2 -8 10 -20 20 -25 13 -9 42 14 168 136 84 81 163 150
176 153 13 3 41 -1 63 -9 30 -13 47 -13 80 -5 44 11 64 34 41 48 -7 4 -28 1
-47 -6 -31 -14 -38 -13 -105 17 -59 26 -85 31 -147 32 -60 0 -70 2 -46 9 35
10 233 45 285 51 76 8 300 6 385 -3z m930 -78 c-35 -4 -39 1 -24 29 l12 23 20
-25 19 -24 -27 -3z m-2021 -38 c26 -9 44 -20 39 -24 -4 -5 -39 -25 -76 -45
-56 -30 -68 -33 -63 -18 2 10 10 37 16 61 12 47 17 49 84 26z m-684 -94 c0
-15 -7 -20 -27 -20 -25 0 -26 0 -8 20 10 11 22 20 27 20 4 0 8 -9 8 -20z
m3448 -300 c48 -63 102 -138 119 -167 l32 -51 -23 -15 c-24 -16 -303 -157
-310 -157 -2 0 -15 17 -27 38 -33 54 -127 176 -198 257 l-62 70 67 62 c36 35
69 61 74 58 4 -2 17 -31 29 -64 25 -69 31 -75 56 -57 17 12 17 17 -10 89 -26
73 -28 107 -5 107 6 0 24 -29 40 -65 16 -36 31 -65 34 -65 17 0 36 15 36 27 0
8 -16 51 -35 96 -19 44 -35 83 -35 86 1 13 136 -142 218 -249z m-3458 140 l0
-80 74 0 74 0 4 -56 3 -56 -69 -81 c-38 -45 -93 -117 -123 -159 -30 -43 -60
-78 -66 -78 -13 0 -227 133 -227 141 0 4 14 12 30 19 38 16 44 25 30 50 -10
19 -12 19 -81 -16 -39 -19 -73 -34 -75 -32 -11 12 148 232 265 366 54 61 55
62 108 62 l53 0 0 -80z m156 56 c15 -62 -10 -87 -72 -72 -20 5 -24 13 -24 45
0 47 4 51 51 51 32 0 40 -4 45 -24z m102 -148 c-2 -6 -14 -18 -26 -26 -21 -14
-22 -13 -22 12 0 21 5 26 26 26 15 0 24 -5 22 -12z m-533 -383 c77 -48 141
-88 143 -90 2 -2 -17 -43 -41 -91 -24 -49 -54 -115 -67 -147 -13 -31 -27 -52
-30 -47 -4 6 -82 30 -173 53 -91 24 -169 46 -173 50 -9 9 29 101 103 249 55
109 67 127 82 119 9 -5 80 -48 156 -96z m3960 -26 c61 -120 82 -170 126 -297
33 -94 81 -274 74 -280 -2 -3 -47 32 -99 77 -52 44 -98 81 -102 81 -5 0 -43
-55 -84 -123 l-74 -122 -13 50 c-33 127 -97 304 -147 411 -31 64 -56 118 -56
120 0 5 78 44 89 44 5 0 1 -33 -10 -72 -24 -93 -24 -90 9 -86 25 3 29 9 47 80
11 42 23 80 27 84 4 4 32 -9 63 -29 30 -21 59 -37 65 -37 6 0 10 31 10 74 0
69 8 136 16 136 2 0 29 -50 59 -111z m-125 21 c0 -11 -6 -20 -14 -20 -18 0
-29 16 -21 30 11 18 35 11 35 -10z m-4166 -364 l16 -50 -27 -29 c-16 -16 -41
-38 -57 -49 l-28 -21 7 24 c34 118 59 188 65 182 4 -4 15 -30 24 -57z m76 4
c0 -5 -4 -10 -10 -10 -5 0 -10 5 -10 10 0 6 5 10 10 10 6 0 10 -4 10 -10z
m158 -32 c48 -11 89 -22 90 -24 9 -7 -44 -144 -55 -144 -30 0 -157 41 -165 52
-4 7 -11 28 -14 46 -5 28 -2 38 22 63 15 16 29 29 31 29 2 0 43 -10 91 -22z
m-198 -98 c0 -5 -5 -10 -11 -10 -5 0 -7 5 -4 10 3 6 8 10 11 10 2 0 4 -4 4
-10z m4339 -88 c101 -87 99 -86 116 -72 8 7 15 10 15 8 0 -3 6 -51 14 -109 24
-174 31 -293 16 -284 -8 5 -47 -9 -100 -35 l-87 -43 -75 42 c-42 22 -82 41
-90 41 -10 0 -17 30 -27 128 -7 70 -15 142 -18 161 -5 30 -4 33 15 27 17 -6
29 9 81 94 34 55 65 100 68 100 3 0 35 -26 72 -58z m-4293 7 c89 -23 166 -44
172 -48 7 -4 3 -49 -11 -135 l-21 -129 -184 6 c-102 3 -186 8 -188 10 -9 9 32
268 51 325 6 16 -2 17 181 -29z m-188 -373 l41 -53 -50 -49 -49 -48 0 64 c0
59 9 140 15 140 1 0 21 -24 43 -54z m284 4 l38 0 0 -65 0 -65 -87 1 c-49 0
-107 4 -130 7 l-43 7 24 30 24 29 -27 35 -26 34 94 -6 c52 -4 111 -7 133 -7z
m4060 -176 l52 -26 -54 -29 c-30 -15 -58 -28 -62 -29 -5 0 -8 25 -8 55 0 31 4
55 10 55 6 0 34 -12 62 -26z m308 -29 c0 -31 -4 -55 -10 -55 -13 0 -110 49
-110 55 0 7 93 54 108 55 8 0 12 -17 12 -55z m-4394 19 l61 -5 7 -94 c5 -80
21 -184 52 -335 6 -35 5 -34 -74 44 l-80 79 -11 -39 c-6 -21 -11 -47 -11 -56
0 -30 -15 -27 -65 12 -34 27 -52 35 -57 27 -4 -6 -17 -51 -29 -100 -12 -49
-25 -85 -29 -80 -29 32 -96 534 -74 555 6 6 207 1 310 -8z m4295 -96 c73 -36
89 -47 89 -66 0 -35 -18 -155 -42 -270 l-21 -104 -31 6 c-17 3 -96 26 -176 50
l-145 43 2 34 c1 19 10 88 20 153 16 104 21 120 38 121 11 1 52 18 90 38 39
20 74 36 78 37 5 0 49 -19 98 -42z m-4262 -371 c-2 -3 -14 -8 -26 -11 -20 -6
-23 -4 -23 17 0 34 11 40 34 18 11 -11 18 -22 15 -24z m-128 -28 c-7 -8 -71
-22 -71 -16 0 2 5 18 11 35 l11 32 28 -23 c15 -12 25 -25 21 -28z m4113 -15
c34 -9 66 -23 73 -32 6 -8 20 -47 29 -88 10 -41 23 -74 29 -74 6 0 44 34 85
75 41 41 75 73 77 71 6 -5 -45 -165 -83 -258 -20 -51 -59 -137 -86 -191 -44
-88 -50 -96 -68 -87 -20 11 -172 105 -250 155 -25 16 -46 30 -48 30 -1 1 20
49 47 106 27 57 63 145 80 194 17 50 33 96 36 103 6 15 7 15 79 -4z m-3855
-66 c13 -40 44 -118 68 -173 24 -55 47 -105 50 -112 3 -7 -42 -35 -117 -73
l-122 -61 6 38 c4 21 9 45 12 54 4 16 -30 34 -46 24 -4 -2 -15 -39 -25 -82
-10 -43 -21 -82 -25 -86 -8 -10 -98 180 -138 293 -45 126 -55 161 -48 167 6 6
319 80 347 82 10 1 22 -21 38 -71z m4030 13 c12 -8 12 -12 2 -25 -16 -19 -31
-12 -31 15 0 21 7 23 29 10z m-3806 -473 c41 -62 102 -144 134 -182 97 -115
101 -102 -34 -116 -65 -7 -121 -16 -125 -19 -5 -4 17 -37 48 -74 61 -73 62
-70 -30 -87 -33 -5 -63 -15 -66 -20 -13 -22 -165 168 -275 342 -35 57 -60 104
-55 106 5 2 41 -8 81 -23 78 -28 99 -27 99 4 0 14 -12 23 -40 33 -22 7 -41 18
-42 23 -1 9 205 124 223 125 4 0 41 -51 82 -112z m3444 26 c40 -25 73 -47 73
-49 0 -7 -80 -26 -111 -27 -16 -1 -43 10 -63 26 l-36 27 23 34 c12 19 26 35
31 35 5 0 42 -21 83 -46z m-28 -164 c77 -50 147 -93 156 -96 8 -3 15 -11 15
-16 0 -20 -218 -287 -279 -342 -21 -19 -22 -19 -56 14 -19 19 -35 38 -35 42 0
4 18 8 40 8 38 0 40 2 40 30 l0 30 -72 0 c-82 0 -75 -3 -145 70 l-52 55 80 90
c44 50 99 116 122 147 23 32 43 58 44 58 1 0 65 -41 142 -90z m251 17 c0 -5
-10 -26 -21 -47 l-21 -38 -57 38 c-31 20 -67 43 -79 49 -31 16 -23 22 46 37
52 10 60 10 95 -9 20 -11 37 -25 37 -30z m-3322 -279 c29 -26 97 -80 151 -120
l98 -71 -50 -80 c-28 -43 -55 -80 -61 -82 -6 -2 -44 -9 -84 -15 -71 -12 -73
-13 -70 -38 3 -28 7 -29 71 -19 43 7 45 1 16 -47 l-21 -36 -89 61 c-129 89
-361 291 -348 303 3 3 54 12 114 21 61 9 112 18 114 20 2 2 -22 34 -54 70 -32
36 -56 68 -53 70 3 3 40 10 84 15 43 6 81 15 83 21 3 11 11 5 99 -73z m2683
-25 l33 -38 -42 -3 c-39 -3 -42 -5 -42 -33 l0 -29 73 0 73 0 59 -60 59 -59
-20 -22 c-47 -52 -249 -202 -367 -272 l-59 -35 -54 102 c-30 55 -69 130 -87
165 -37 73 -49 54 98 151 50 33 119 84 155 114 36 30 70 55 76 55 7 1 27 -16
45 -36z m-2253 -263 c67 -33 124 -60 127 -60 3 0 22 -7 42 -15 30 -13 34 -17
23 -30 -11 -13 -8 -22 17 -53 27 -33 36 -37 82 -40 60 -4 58 11 20 -132 -28
-106 -29 -108 -74 -80 -33 21 -40 21 -82 9 -29 -8 -48 -19 -51 -31 -2 -10 -6
-18 -7 -18 -33 0 -395 171 -416 196 -8 10 -5 23 11 49 12 19 25 33 30 30 4 -2
13 -25 19 -50 9 -35 16 -45 31 -45 31 0 33 22 11 102 l-20 73 51 78 c28 42 54
77 58 77 4 0 62 -27 128 -60z m1877 -137 c43 -80 85 -152 93 -160 12 -11 -2
-21 -90 -62 -110 -52 -357 -141 -389 -141 -17 0 -18 3 -9 21 14 25 19 19 -60
59 -36 18 -67 34 -68 35 -2 2 6 25 17 51 17 37 19 49 9 56 -27 16 -39 6 -73
-61 l-34 -69 90 -47 c49 -25 87 -50 84 -54 -6 -10 -193 -46 -315 -61 -46 -5
-133 -10 -192 -10 l-108 0 0 145 c0 80 3 145 6 145 3 0 20 -10 36 -22 30 -21
31 -21 44 -3 21 28 19 31 -36 68 l-50 34 112 7 c62 4 160 14 217 22 131 18
131 18 131 -4 0 -12 21 -28 65 -50 36 -17 65 -37 65 -42 0 -6 -9 -29 -21 -52
-17 -33 -18 -42 -7 -49 7 -5 19 -8 27 -6 18 3 85 123 76 137 -3 5 -39 26 -80
45 -78 38 -99 55 -68 55 29 0 241 75 338 119 50 22 95 41 100 41 6 -1 46 -66
90 -147z m-1565 12 l35 -14 -44 2 c-25 1 -46 7 -49 15 -5 15 13 14 58 -3z
m285 -60 c55 -8 117 -15 138 -15 l37 0 0 -141 0 -141 -22 16 c-53 38 -57 38
-70 11 -6 -14 -9 -27 -7 -28 2 -2 33 -23 68 -48 62 -43 63 -44 35 -47 -61 -8
-433 44 -452 62 -2 3 16 82 42 176 25 94 46 173 46 177 0 3 19 3 43 -1 23 -3
87 -13 142 -21z m-368 -286 c19 -12 32 -23 30 -26 -3 -2 -31 3 -63 13 -48 14
-55 18 -39 25 30 12 35 11 72 -12z"/>
<path d="M2385 4323 c-59 -14 -36 -48 30 -44 41 2 48 -2 88 -42 52 -54 87 -64
158 -43 29 9 56 16 59 16 4 0 31 -18 60 -40 57 -42 66 -45 90 -30 12 8 10 14
-15 41 -30 31 -30 31 -5 24 14 -4 37 -14 52 -21 15 -8 36 -14 48 -14 20 0 20
1 4 25 -25 38 -1 30 53 -19 65 -59 131 -183 114 -215 -7 -11 -16 -21 -20 -21
-5 0 -39 32 -75 71 -66 71 -66 71 -91 55 l-25 -16 24 -38 c13 -20 42 -66 65
-101 52 -80 57 -144 15 -198 -25 -33 -54 -44 -54 -20 0 6 7 37 15 67 22 82 19
106 -17 145 -37 39 -96 61 -85 31 4 -9 14 -42 23 -74 9 -31 25 -69 35 -84 11
-14 19 -37 19 -50 0 -47 -65 -146 -84 -127 -3 3 1 27 9 54 23 75 19 115 -14
155 -16 19 -32 32 -35 29 -11 -10 -9 -135 3 -157 15 -28 14 -84 -1 -103 -11
-13 -179 -129 -279 -192 -37 -24 -49 -15 -49 34 0 68 47 130 87 115 17 -7 123
39 123 53 0 10 -13 15 -67 26 -29 6 -38 1 -82 -40 -28 -27 -55 -44 -61 -40
-27 16 24 105 59 105 75 0 161 64 161 119 0 39 -14 40 -81 6 -35 -18 -58 -39
-77 -70 -26 -43 -52 -65 -52 -44 0 32 102 185 130 194 10 3 29 1 41 -6 17 -8
31 -8 60 0 36 11 79 51 79 74 0 16 -92 -1 -122 -23 -32 -24 -35 -19 -12 19 30
51 72 70 146 68 43 -1 72 3 80 11 18 18 -5 36 -47 35 -19 -1 -35 2 -35 6 0 5
45 29 100 54 92 42 100 48 90 66 -12 23 -10 23 -236 -50 -66 -21 -129 -39
-140 -39 -28 0 -166 142 -162 166 3 16 -2 19 -34 16 -26 -2 -54 7 -100 33 -73
39 -146 47 -186 19 -43 -30 -11 -54 37 -27 27 16 31 16 67 0 22 -10 49 -26 62
-35 l23 -18 -77 -77 c-43 -42 -82 -77 -87 -77 -5 0 -42 12 -83 26 -61 22 -79
25 -99 16 -14 -7 -25 -16 -25 -21 0 -5 28 -27 63 -50 74 -48 123 -96 108 -105
-6 -4 -21 5 -33 20 -13 14 -40 35 -61 45 -32 17 -38 17 -43 5 -14 -38 63 -95
129 -96 66 0 131 -71 125 -134 -3 -35 2 -38 -61 39 -39 47 -177 86 -177 50 0
-50 76 -105 144 -107 38 0 50 -5 65 -27 46 -64 47 -161 2 -161 -24 0 -210 175
-243 228 -20 32 -20 40 -10 91 9 44 9 67 -1 106 l-13 50 -27 -27 c-31 -31 -36
-78 -12 -118 27 -46 28 -52 15 -60 -25 -15 -192 63 -234 109 -24 26 -16 71 24
134 27 43 28 47 10 47 -11 0 -20 -4 -20 -8 0 -13 -57 -42 -84 -42 -35 0 -33
16 7 41 33 21 65 21 188 3 36 -5 49 -3 64 12 17 18 17 18 -11 27 -16 5 -77 10
-136 11 -100 1 -108 0 -132 -23 -14 -14 -26 -30 -26 -38 0 -8 -11 -13 -27 -13
-51 0 -102 -20 -127 -51 -14 -17 -26 -35 -26 -40 0 -15 26 -10 41 7 27 33 62
43 111 33 61 -13 76 -31 54 -64 -17 -27 -37 -34 -119 -44 -37 -4 -52 -10 -52
-21 0 -11 18 -17 77 -22 42 -4 95 -12 116 -18 43 -11 176 -94 206 -128 25 -29
14 -28 -32 2 -72 47 -115 42 -66 -7 18 -18 46 -30 88 -38 50 -10 68 -19 99
-51 37 -39 46 -58 27 -58 -23 0 -109 39 -163 73 -31 20 -60 37 -62 37 -11 0
-4 -44 12 -71 26 -44 87 -69 165 -69 70 0 98 -6 98 -22 0 -5 -18 -7 -44 -3
-34 5 -55 2 -92 -15 l-49 -21 24 -20 c32 -26 79 -24 123 6 20 14 39 25 42 25
7 0 166 -184 166 -192 0 -16 -21 -7 -71 27 -28 19 -63 35 -78 35 -31 0 -121
-55 -121 -75 0 -19 91 -28 159 -15 93 17 118 1 151 -95 25 -73 25 -81 -1 -32
-19 37 -66 67 -104 67 -14 0 -14 -3 -1 -28 16 -31 90 -102 107 -102 5 0 17
-16 25 -36 14 -32 13 -38 -1 -61 -13 -20 -22 -23 -43 -18 -42 10 -79 52 -91
103 -20 82 -30 98 -77 122 -25 12 -48 20 -50 17 -10 -9 25 -78 62 -123 20 -24
34 -47 31 -51 -8 -8 -107 52 -158 95 -57 49 -62 63 -49 127 12 57 -1 165 -20
165 -14 0 -51 -67 -57 -104 -4 -26 0 -45 16 -71 25 -43 25 -45 5 -45 -8 0 -29
13 -45 29 -27 28 -29 34 -29 110 0 124 -26 168 -56 94 -19 -45 -13 -93 16
-130 23 -30 11 -45 -17 -21 -66 55 -69 214 -5 272 25 22 40 82 24 98 -12 12
-48 -39 -58 -82 -11 -47 -17 -57 -21 -37 -3 10 13 59 35 110 51 115 58 143 42
162 -22 27 -37 16 -92 -67 l-53 -83 -5 50 c-5 45 -44 125 -62 125 -4 0 -10
-10 -14 -22 -14 -44 -5 -89 27 -133 28 -39 31 -49 23 -77 -16 -56 -96 -65
-129 -14 -14 21 -13 35 11 162 14 76 26 146 27 155 1 12 15 19 50 23 36 5 58
15 80 37 42 43 22 60 -29 25 -34 -23 -49 -26 -119 -26 -96 0 -141 -18 -203
-81 -24 -24 -58 -74 -75 -111 -27 -56 -35 -65 -53 -61 -47 10 -110 -88 -130
-199 -6 -34 -4 -38 14 -38 16 0 24 10 33 40 11 35 16 40 43 40 42 0 132 54
151 90 23 44 -1 49 -36 7 -43 -52 -129 -87 -129 -53 0 8 16 33 35 56 l35 42 0
-37 c0 -29 3 -36 17 -33 18 3 22 14 44 101 28 113 135 207 226 198 11 -1 -14
-80 -40 -121 -17 -28 -104 -70 -144 -70 -26 0 -33 -4 -33 -20 0 -18 7 -20 59
-20 63 0 71 -6 71 -59 0 -98 -71 -139 -136 -80 -20 19 -54 17 -54 -1 0 -23
-54 -68 -95 -80 -25 -7 -66 -26 -91 -42 -26 -16 -48 -27 -51 -25 -2 3 14 31
36 62 44 63 50 85 25 85 -42 0 -122 -131 -132 -216 -6 -53 5 -56 57 -15 56 44
140 88 204 106 80 23 105 15 45 -15 -48 -24 -74 -66 -66 -105 5 -24 58 18 93
74 36 56 68 68 198 77 126 9 172 -15 193 -101 l7 -30 -35 38 c-28 30 -43 37
-72 37 l-37 0 21 -30 c13 -18 50 -44 89 -63 59 -28 68 -37 81 -74 8 -23 11
-45 8 -49 -16 -15 -95 -15 -130 -1 -39 16 -42 22 -53 111 -10 73 -75 132 -75
67 0 -57 13 -92 52 -136 43 -48 44 -61 6 -51 -53 13 -86 44 -103 95 -18 54
-63 101 -97 101 -17 0 -19 -4 -13 -32 13 -62 34 -98 67 -118 18 -11 40 -20 49
-20 8 0 24 -6 35 -14 15 -11 16 -17 7 -27 -26 -26 -261 65 -303 118 -11 14
-23 43 -26 65 -4 22 -12 38 -20 38 -8 0 -35 -21 -62 -47 -33 -34 -66 -54 -107
-68 -82 -28 -120 -76 -120 -152 0 -49 -4 -60 -32 -89 -45 -48 -60 -149 -23
-149 10 0 17 15 22 48 8 59 23 76 88 107 60 28 69 56 14 47 -33 -6 -36 -4 -30
16 3 12 6 30 6 39 0 9 11 30 25 47 36 41 115 60 167 38 55 -23 188 -116 188
-131 0 -26 -151 -136 -187 -136 -19 0 -23 -6 -23 -30 0 -33 -15 -50 -113 -121
l-67 -49 -17 35 c-16 34 -36 45 -48 25 -6 -9 50 -128 79 -165 12 -16 17 -17
27 -8 10 10 10 20 -4 47 l-16 35 30 22 c34 24 59 19 59 -11 0 -34 -25 -72 -76
-118 -34 -30 -44 -46 -37 -53 8 -8 17 -7 33 1 12 6 24 9 28 6 3 -3 2 -6 -2 -6
-3 0 1 -15 11 -32 14 -26 18 -57 18 -143 l0 -110 -44 -90 c-51 -102 -53 -108
-29 -113 11 -2 23 8 33 28 19 36 34 30 55 -20 16 -38 6 -88 -25 -134 -30 -45
-31 -56 -5 -56 12 0 25 10 32 25 11 24 12 24 29 9 32 -29 33 -74 4 -144 -17
-41 -23 -66 -17 -72 14 -14 29 -2 51 40 32 62 36 123 13 176 -22 49 -30 54
-51 34 -9 -9 -8 -2 3 19 9 18 16 46 16 63 0 39 -26 96 -51 114 -19 13 -19 14
0 57 31 69 44 170 31 239 -13 71 -36 130 -51 130 -6 0 4 17 24 39 40 44 52 84
42 140 -6 38 -5 39 57 86 74 56 84 46 44 -39 -29 -60 -32 -86 -15 -119 19 -36
62 -77 81 -77 23 0 24 52 2 135 -31 121 -16 179 62 235 78 56 200 93 214 65 3
-5 -26 -31 -65 -56 -84 -55 -105 -87 -105 -154 0 -81 13 -88 60 -35 22 25 47
65 56 90 30 85 43 109 67 125 26 17 237 56 237 44 0 -3 -41 -41 -91 -84 -49
-43 -96 -87 -104 -99 -37 -57 -37 -165 0 -196 13 -10 20 -1 51 63 19 42 39
100 43 130 8 60 29 100 62 117 29 16 35 5 13 -26 -48 -68 -52 -88 -33 -157 9
-33 13 -36 25 -26 29 24 44 68 44 131 0 76 16 103 69 119 30 9 47 9 77 -1 76
-25 175 -73 171 -84 -4 -13 -46 -23 -98 -25 -26 -1 -43 -10 -66 -33 -34 -35
-75 -116 -67 -130 3 -5 33 6 67 24 44 24 68 44 86 76 l26 43 55 -4 c60 -5 133
-34 127 -51 -2 -7 -29 -10 -69 -8 -58 3 -68 1 -97 -23 -27 -24 -61 -73 -61
-90 0 -3 11 -5 24 -5 52 0 88 14 130 51 24 22 54 39 66 39 27 0 119 -87 176
-166 77 -108 92 -182 69 -335 -22 -147 -39 -191 -115 -299 -36 -52 -79 -121
-95 -153 -21 -45 -39 -66 -74 -89 -59 -37 -207 -108 -290 -138 -62 -23 -65
-23 -165 -9 -118 16 -503 14 -523 -3 -25 -21 -12 -45 47 -86 51 -36 65 -53
100 -125 30 -61 42 -99 47 -149 l6 -66 -32 -16 c-32 -17 -41 -43 -17 -52 8 -3
28 2 44 10 36 18 48 66 37 149 -11 87 -24 125 -71 203 -24 42 -44 78 -44 81 0
7 129 -3 152 -12 15 -6 13 -12 -13 -48 -25 -35 -30 -49 -26 -81 7 -52 19 -62
56 -46 22 9 38 28 57 69 15 31 28 57 29 59 2 2 17 -4 34 -12 16 -9 46 -16 66
-16 29 0 37 5 45 25 5 14 15 25 23 25 7 0 50 5 96 10 46 6 85 9 88 6 5 -5 -8
-30 -31 -59 -12 -15 -32 -19 -103 -22 -106 -4 -168 -17 -194 -41 -45 -41 -44
-144 1 -144 51 0 140 68 140 107 0 33 -31 29 -52 -6 -9 -16 -30 -37 -47 -46
-30 -15 -31 -15 -31 6 0 11 13 34 29 50 26 26 36 29 90 29 102 0 140 -34 107
-98 -28 -54 -73 -67 -236 -68 -80 -1 -145 -5 -145 -10 0 -5 25 -18 55 -28 41
-15 87 -20 180 -22 69 -1 131 -2 137 -3 7 -1 26 -29 41 -64 46 -101 116 -198
204 -285 100 -98 205 -182 227 -182 13 -1 13 -3 -4 -16 -16 -12 -17 -16 -6
-24 16 -9 35 -3 119 39 67 34 74 41 63 60 -6 10 -22 6 -67 -17 l-58 -29 -85
67 c-111 88 -249 231 -283 296 -39 72 -62 168 -54 228 8 68 48 146 99 193 39
36 349 203 376 203 18 0 12 -40 -10 -76 -16 -26 -49 -48 -137 -94 -200 -102
-261 -166 -262 -273 0 -94 98 -273 131 -240 8 8 2 31 -25 83 -59 120 -46 203
41 263 47 32 86 47 122 47 27 0 29 -3 46 -82 21 -97 38 -139 100 -247 51 -89
125 -176 156 -186 20 -7 19 -9 -11 -40 -48 -49 -13 -80 37 -33 l23 21 19 -25
c11 -14 51 -44 89 -67 65 -39 105 -51 116 -33 5 8 -136 112 -184 136 -17 9
-14 14 26 59 48 54 52 65 28 74 -10 4 -32 -11 -65 -43 -27 -26 -49 -43 -49
-37 0 6 -18 33 -39 60 -124 155 -139 295 -51 472 47 92 92 141 118 125 32 -20
121 -163 138 -221 19 -64 14 -164 -11 -246 -13 -42 -13 -49 0 -54 26 -9 43 4
75 59 37 65 66 141 90 233 16 63 20 70 44 73 40 5 129 -41 162 -83 42 -55 46
-136 10 -210 -40 -80 -179 -202 -222 -193 -10 2 -1 18 28 54 35 44 44 50 59
41 13 -8 21 -7 33 2 14 12 13 17 -14 47 -43 49 -55 102 -34 153 9 23 19 41 23
41 32 0 42 -89 15 -128 -16 -23 -13 -52 5 -52 6 0 20 19 32 42 27 53 23 130
-10 177 -34 47 -59 39 -93 -28 -35 -67 -37 -138 -8 -186 l20 -32 -115 -114
c-63 -62 -115 -117 -115 -121 0 -4 13 -8 28 -8 22 0 39 12 72 51 40 47 44 50
52 30 14 -38 56 -27 133 34 81 64 150 143 176 200 26 55 26 185 0 240 -10 22
-29 49 -42 61 -39 34 -139 89 -214 119 -38 15 -80 36 -92 48 -23 21 -49 84
-39 94 10 11 87 -17 201 -72 127 -62 206 -127 250 -206 26 -48 30 -63 29 -139
0 -92 -7 -111 -85 -236 -42 -66 -49 -94 -22 -94 30 0 104 93 154 196 l50 101
142 7 c78 3 168 9 200 12 l57 6 0 -28 c0 -35 8 -47 37 -63 30 -15 80 -14 143
5 110 32 230 185 246 312 6 48 5 52 -14 52 -16 0 -22 -9 -27 -42 -16 -93 -43
-144 -114 -210 -48 -46 -81 -68 -113 -77 -60 -17 -106 -7 -119 26 -12 32 -13
31 21 38 42 9 39 35 -4 35 l-34 0 18 48 c33 88 38 97 82 157 30 40 61 69 96
88 37 20 50 24 46 13 -3 -9 2 -36 11 -61 15 -39 16 -51 5 -92 -15 -51 -58
-106 -101 -129 -34 -17 -38 -44 -9 -44 48 0 119 61 142 119 23 62 5 221 -26
221 -6 0 7 11 29 24 22 13 43 23 46 20 4 -2 9 -18 13 -35 4 -22 11 -30 23 -27
15 3 17 12 15 50 -3 43 -1 46 25 51 15 3 35 8 44 12 13 5 15 0 11 -27 -6 -47
-47 -86 -109 -104 -40 -12 -53 -20 -53 -35 0 -23 24 -25 75 -3 82 34 114 63
132 122 14 43 15 56 5 60 -8 2 -3 15 17 38 42 47 66 143 41 159 -7 4 1 20 19
40 37 42 48 100 27 149 -8 20 -20 36 -26 36 -7 0 2 17 18 38 50 64 65 103 70
183 8 142 -56 320 -93 259 -4 -6 3 -31 14 -56 68 -143 43 -295 -65 -405 -41
-42 -45 -49 -34 -69 l12 -22 33 32 33 32 7 -50 c4 -30 2 -58 -4 -70 -12 -22
-102 -92 -119 -92 -6 0 -12 -6 -15 -12 -2 -8 -12 1 -23 19 -22 38 -42 49 -50
28 -7 -17 39 -130 67 -167 16 -20 20 -21 33 -8 13 13 13 20 -4 58 -13 28 -15
42 -7 39 6 -2 27 4 45 15 18 11 35 19 36 17 2 -2 -5 -29 -15 -59 -19 -60 -52
-93 -109 -111 -19 -7 -38 -16 -41 -22 -4 -5 -12 8 -19 29 -16 51 -24 58 -43
40 -12 -13 -14 -23 -6 -48 12 -45 13 -42 -26 -61 -50 -24 -53 -22 -45 24 9 48
39 83 100 113 25 12 46 30 48 39 4 21 -19 22 -58 2 -33 -17 -34 -16 -19 38 8
28 25 50 75 88 86 68 87 91 1 48 -51 -26 -84 -55 -103 -91 -16 -31 -19 -84 -4
-93 6 -3 -4 -18 -20 -32 -42 -35 -62 -77 -58 -121 3 -36 2 -37 -37 -40 -22 -2
-92 1 -156 8 -101 10 -131 10 -228 -5 -221 -34 -338 -9 -470 101 -42 35 -108
90 -147 121 -39 32 -83 73 -97 91 -34 44 -52 126 -51 232 1 95 11 141 56 250
28 69 30 80 22 145 -22 191 19 275 134 275 40 0 50 -5 110 -63 74 -70 120
-107 133 -107 14 0 10 67 -5 105 -16 38 -47 57 -123 75 -29 6 -53 16 -53 20 0
5 15 13 33 19 29 10 40 8 78 -13 39 -21 176 -52 187 -41 2 2 -6 21 -18 43 -43
77 -105 89 -237 47 -94 -30 -101 -30 -78 -5 18 20 167 81 246 100 50 13 150 0
175 -21 9 -7 14 -32 14 -66 0 -67 29 -195 44 -190 19 6 47 53 52 88 5 29 -1
46 -34 99 -43 67 -45 88 -9 69 39 -20 67 -52 67 -75 0 -41 21 -78 73 -131 28
-29 55 -53 59 -53 18 0 20 72 3 116 -17 46 -35 62 -180 163 -64 44 -46 54 65
35 155 -27 219 -76 221 -167 0 -29 3 -60 7 -69 11 -28 94 -118 104 -112 4 3 8
31 8 63 0 55 -2 60 -55 121 -30 35 -55 69 -55 77 0 29 99 -30 152 -91 34 -39
37 -99 8 -156 -14 -27 -20 -59 -20 -104 0 -64 1 -65 23 -57 12 4 32 26 45 47
19 32 22 49 18 99 -3 33 -8 72 -12 88 -8 33 10 36 43 8 20 -17 21 -23 12 -50
-6 -17 -8 -47 -5 -65 8 -41 44 -89 61 -82 9 3 5 -14 -10 -47 -35 -75 -49 -183
-35 -253 16 -77 37 -124 56 -124 18 0 17 3 -11 120 -19 81 -12 157 22 226 l25
52 28 -31 c26 -29 27 -32 11 -44 -25 -17 -55 -117 -48 -160 13 -80 98 -203
127 -184 12 8 8 20 -28 70 -60 85 -71 133 -47 210 l18 61 23 -21 c12 -12 28
-42 34 -68 9 -39 8 -55 -5 -92 -28 -76 -29 -82 -14 -77 8 2 24 22 36 44 29 50
31 130 4 182 -19 37 -102 122 -120 122 -4 0 -1 20 7 44 l16 44 27 -19 c29 -20
49 -25 49 -10 0 4 -28 38 -63 75 -46 49 -68 65 -80 60 -26 -10 -20 -31 18 -60
l35 -26 -25 -30 c-14 -16 -25 -35 -25 -41 -1 -21 -50 67 -50 88 0 11 14 44 30
74 17 30 30 60 30 68 0 22 -27 15 -44 -12 l-17 -25 -31 36 -32 36 21 37 c53
88 57 101 44 114 -10 9 -16 7 -32 -13 -65 -83 -84 -88 -157 -38 -70 46 -92 69
-92 93 0 25 9 30 145 85 55 22 106 47 115 56 13 14 11 19 -21 47 -49 43 -59
65 -66 150 -3 40 -11 75 -17 79 -8 6 -8 8 0 8 21 0 64 -42 85 -82 24 -47 19
-57 -15 -34 -33 21 -36 20 -36 -7 0 -13 14 -36 31 -53 45 -43 59 -76 59 -144
0 -45 4 -62 15 -67 21 -8 26 -1 32 46 l6 41 28 -37 c36 -45 38 -89 5 -169 -17
-42 -21 -63 -14 -71 7 -9 -5 -7 -35 4 -26 9 -50 13 -54 9 -17 -17 135 -113
162 -102 26 10 16 35 -20 53 l-35 18 18 35 c23 46 36 47 56 5 20 -41 16 -72
-21 -154 -24 -56 -19 -86 9 -54 9 10 28 40 42 67 41 77 32 150 -23 200 -16 15
-21 31 -21 73 0 34 -7 68 -20 93 -20 39 -53 66 -69 56 -10 -7 -21 27 -21 70 0
96 -61 199 -138 235 -40 19 -49 28 -46 44 3 12 -7 37 -27 63 -24 32 -42 45
-75 54 -36 10 -43 16 -38 30 9 29 -34 105 -80 143 -51 41 -121 74 -158 75 -49
0 -31 -26 32 -49 33 -12 73 -33 89 -47 34 -28 94 -130 86 -144 -11 -17 -22
-11 -35 20 -7 17 -33 52 -59 79 -47 50 -105 75 -203 88 -21 3 -38 10 -38 14 0
12 47 11 55 -1 3 -5 15 -10 26 -10 16 0 19 4 14 23 -24 77 -86 137 -143 137
-22 0 -44 12 -77 40 -40 35 -53 40 -94 40 -40 0 -52 5 -77 31 -16 17 -51 42
-79 55 -42 20 -66 24 -153 24 -83 0 -110 4 -142 20 -47 24 -75 25 -114 5 -37
-19 -43 -19 -73 5 -25 19 -47 23 -88 13z m264 -69 c12 -11 10 -15 -13 -24 -30
-11 -76 4 -83 27 -9 25 69 23 96 -3z m231 -14 c0 -5 -15 -10 -34 -10 -19 0
-38 5 -41 10 -4 6 10 10 34 10 23 0 41 -4 41 -10z m-416 -106 c19 -25 43 -66
52 -90 16 -42 16 -48 1 -80 -24 -49 -37 -42 -37 19 0 84 -40 117 -55 47 -5
-21 -1 -43 14 -72 23 -48 15 -78 -24 -78 -58 0 -73 89 -25 150 46 58 39 137
-8 87 -26 -27 -42 -69 -42 -107 0 -39 -17 -47 -32 -16 -18 40 4 96 57 145 24
22 49 41 54 41 6 0 26 -21 45 -46z m692 -10 c33 -16 61 -50 51 -60 -9 -9 -72
23 -96 50 -21 22 -22 26 -7 26 10 0 33 -7 52 -16z m182 -101 c26 -29 28 -43 5
-43 -20 0 -83 58 -83 77 0 18 48 -3 78 -34z m-55 -63 l32 -20 -35 0 c-29 0
-55 10 -88 36 -2 1 2 20 8 40 l13 38 19 -38 c10 -20 33 -46 51 -56z m108 -81
c129 -17 171 -52 219 -186 12 -35 29 -68 38 -75 14 -12 15 -7 9 44 l-7 57 28
-8 c49 -15 90 -40 111 -70 26 -37 26 -45 0 -38 -27 7 -49 -1 -49 -18 0 -14 10
-18 70 -31 19 -4 29 -9 23 -11 -9 -3 -11 -32 -6 -112 8 -148 -5 -167 -132
-190 -71 -13 -90 -2 -43 27 52 32 67 54 74 105 6 39 4 47 -9 47 -24 0 -74 -57
-107 -121 -16 -31 -36 -59 -45 -63 -24 -9 -85 -7 -85 2 0 4 21 25 46 46 48 40
101 133 85 149 -9 9 -64 -15 -93 -40 -10 -9 -24 -40 -33 -70 -17 -59 -56 -93
-107 -93 -75 0 -76 35 -3 128 52 67 58 71 103 77 67 8 127 29 124 43 -3 17 7
15 94 -13 98 -32 114 -32 114 -1 0 17 -10 30 -35 45 -41 24 -55 54 -55 121 0
34 -4 50 -16 54 -26 10 -34 -3 -34 -55 0 -63 -15 -70 -84 -40 -74 33 -87 36
-97 20 -7 -11 -9 -9 -9 8 0 42 18 69 59 88 23 10 41 22 41 26 0 4 -14 18 -31
31 -18 13 -49 40 -70 61 -61 59 -69 53 -69 -57 0 -51 -3 -109 -7 -127 -6 -32
-7 -33 -13 -9 -6 24 -15 28 -95 45 l-29 6 38 33 c34 28 39 39 44 84 4 42 2 52
-11 52 -21 0 -75 -64 -83 -98 -12 -51 -32 -72 -69 -72 -88 0 -60 146 38 190
49 23 58 23 168 9z m-25 -352 c-49 -112 -329 -377 -363 -343 -9 9 42 56 61 56
22 0 75 64 82 99 l7 34 -61 -33 c-53 -28 -66 -40 -88 -86 -28 -57 -93 -124
-120 -124 -18 0 -20 -2 42 74 35 44 39 54 38 106 -1 63 -8 82 -28 74 -20 -8
-63 -109 -75 -177 -6 -32 -14 -64 -18 -72 -11 -19 -83 -75 -98 -75 -26 0 -22
14 15 61 22 28 41 64 44 82 13 88 15 127 5 127 -5 0 -31 -20 -57 -44 -46 -44
-46 -44 -50 -117 -4 -106 -7 -115 -47 -134 -52 -24 -69 -8 -60 58 16 121 152
290 287 357 72 35 109 36 170 4 35 -18 101 -18 136 0 32 16 68 54 60 62 -3 3
-46 0 -94 -6 -102 -13 -124 -14 -132 -5 -4 3 0 10 7 14 14 9 177 36 279 47 45
4 65 11 70 22 3 9 7 11 9 5 2 -6 -7 -35 -21 -66z m164 -6 l45 -15 -41 -6 c-23
-3 -54 -14 -69 -24 -15 -10 -28 -16 -30 -14 -2 2 7 32 19 67 19 57 22 61 26
36 4 -23 13 -31 50 -44z m168 -1936 c2 -2 -11 -28 -31 -57 -39 -59 -82 -186
-75 -222 5 -22 1 -24 -70 -30 -228 -19 -325 8 -347 96 -6 24 -2 30 44 58 72
45 68 60 -17 60 -75 0 -112 17 -112 52 0 20 3 21 96 15 53 -3 101 -10 107 -16
7 -7 6 -29 -2 -69 -11 -49 -11 -64 2 -95 26 -60 99 -93 148 -67 45 25 3 142
-54 148 -32 4 -35 -13 -8 -42 21 -23 38 -76 25 -76 -5 0 -24 9 -41 20 -42 25
-44 65 -7 110 22 25 72 60 87 60 2 0 12 -19 21 -42 28 -68 32 -72 60 -83 39
-14 60 4 64 52 2 32 -3 47 -22 69 -18 22 -28 26 -36 18 -9 -9 -8 -19 5 -44 9
-17 15 -38 13 -46 -3 -13 -6 -13 -22 -1 -14 10 -20 27 -20 50 0 64 57 101 143
92 25 -3 46 -7 49 -10z m-2368 -80 c0 -14 -10 -35 -22 -47 l-23 -23 -3 23 c-4
24 22 72 38 72 6 0 10 -11 10 -25z"/>
<path d="M1293 3871 c-40 -29 -83 -77 -83 -92 0 -20 38 -7 66 22 16 17 46 42
67 55 20 13 37 29 37 34 0 20 -48 9 -87 -19z"/>
<path d="M804 3205 c-21 -53 62 -222 93 -191 5 5 -7 56 -23 91 -2 6 16 11 41
13 43 3 45 2 45 -25 0 -43 -26 -71 -88 -99 -31 -14 -59 -30 -63 -36 -4 -6 -16
6 -28 30 -21 41 -51 57 -51 27 0 -16 68 -162 79 -169 4 -3 13 -1 20 3 10 7 9
15 -3 45 -13 32 -13 36 0 36 19 0 101 46 132 74 53 47 65 122 26 161 -24 23
-71 19 -98 -9 l-22 -25 -12 45 c-12 45 -37 59 -48 29z"/>
<path d="M3856 3167 c-12 -9 -20 -31 -23 -63 -5 -43 -2 -54 20 -80 34 -39 55
-23 31 25 -17 34 -12 81 8 81 6 0 45 -16 85 -36 52 -26 77 -34 85 -26 17 17 1
30 -83 72 -87 44 -97 46 -123 27z"/>
<path d="M681 2898 c-68 -41 -92 -73 -98 -132 -7 -56 12 -107 35 -99 8 4 -4
-19 -27 -49 -51 -68 -61 -101 -61 -202 0 -88 21 -170 55 -212 38 -48 62 -7 26
44 -27 38 -41 97 -41 173 0 78 28 143 96 218 24 27 44 56 44 64 0 29 -21 29
-50 2 l-28 -27 -7 40 c-10 61 13 104 80 148 51 34 63 53 39 61 -5 2 -34 -11
-63 -29z"/>
<path d="M4187 2848 c-2 -7 2 -27 10 -45 22 -54 16 -86 -28 -152 -67 -98 -26
-99 44 -1 43 62 47 96 17 164 -19 46 -34 58 -43 34z"/>
<path d="M654 2609 c-3 -6 3 -23 15 -37 65 -83 87 -162 63 -234 -11 -36 -12
-52 -4 -60 19 -19 39 8 51 73 18 88 -3 157 -70 234 -33 37 -44 42 -55 24z"/>
<path d="M646 2518 c-27 -42 -37 -121 -22 -172 17 -54 67 -121 107 -142 27
-13 30 -13 36 2 4 11 -4 24 -26 41 -70 55 -104 166 -65 221 17 25 16 63 -3 69
-6 2 -19 -6 -27 -19z"/>
<path d="M4055 2221 c-54 -33 -104 -90 -110 -125 -9 -46 -3 -70 18 -74 13 -3
17 3 17 28 0 34 20 79 44 99 14 11 16 11 16 -6 0 -19 63 -149 80 -167 5 -5 16
-6 25 -3 13 6 12 14 -14 64 -16 32 -41 75 -55 95 l-25 38 24 16 c14 9 25 25
25 35 0 24 -7 24 -45 0z"/>
<path d="M645 2203 c-35 -37 -65 -100 -65 -140 0 -18 7 -51 16 -74 13 -32 21
-40 36 -36 15 4 18 2 12 -11 -23 -54 -15 -125 17 -166 14 -18 25 -24 33 -17 8
7 10 -7 8 -54 -4 -63 -3 -64 38 -109 24 -25 46 -46 51 -46 18 0 8 31 -21 72
-37 50 -38 86 -5 156 14 30 23 58 20 63 -3 4 13 0 37 -11 23 -10 46 -16 50
-14 31 19 -26 67 -126 108 l-55 23 25 36 c14 22 22 43 17 50 -4 6 9 0 29 -15
45 -34 58 -35 58 -5 0 16 -11 28 -37 42 -21 11 -54 37 -75 58 -37 38 -37 38
-49 16 -11 -21 -8 -26 27 -57 21 -19 34 -31 27 -28 -7 4 -22 -10 -36 -34 l-24
-41 -18 36 c-21 46 -14 89 23 141 42 58 43 61 28 73 -11 10 -20 6 -41 -16z
m83 -323 c26 -16 40 -30 31 -30 -9 0 -22 -13 -29 -30 -16 -39 -24 -38 -44 4
-15 32 -22 86 -11 86 3 0 26 -13 53 -30z"/>
<path d="M934 1797 c-3 -8 2 -29 10 -46 20 -37 20 -84 2 -144 -7 -25 -11 -49
-7 -52 3 -4 -11 -4 -31 0 -30 6 -38 4 -38 -7 0 -10 20 -20 57 -29 73 -17 136
-75 153 -141 17 -66 18 -68 40 -68 25 0 26 24 3 82 -26 67 -53 96 -114 127
-49 25 -55 30 -43 43 8 8 19 53 25 102 10 81 9 91 -8 114 -24 32 -41 38 -49
19z"/>
<path d="M760 1730 c0 -11 59 -50 126 -82 38 -19 46 -20 54 -8 13 21 -6 39
-75 72 -61 28 -105 36 -105 18z"/>
<path d="M823 1633 c-4 -15 -8 -66 -7 -113 1 -107 34 -197 98 -262 53 -53 139
-102 165 -93 16 5 20 -1 26 -37 8 -47 26 -73 67 -94 42 -22 44 1 4 47 -31 36
-35 49 -38 103 -3 58 -4 61 -30 64 -26 3 -27 2 -22 -35 3 -21 2 -33 -3 -27 -4
6 -26 20 -48 32 -60 30 -129 109 -155 178 -17 45 -23 82 -24 158 -1 68 -5 101
-13 103 -7 3 -16 -8 -20 -24z"/>
<path d="M3767 1478 c-64 -61 -77 -96 -77 -206 0 -65 2 -73 18 -70 14 3 18 17
22 83 6 95 38 160 95 195 20 12 34 27 32 34 -8 25 -37 14 -90 -36z"/>
<path d="M916 1491 c-10 -16 14 -108 37 -143 29 -44 116 -86 187 -90 43 -2 55
0 58 13 2 13 -9 17 -52 22 -103 10 -168 67 -184 159 -7 41 -32 63 -46 39z"/>
<path d="M2381 1390 c-55 -76 -64 -155 -27 -244 20 -48 51 -50 42 -3 -16 88
-17 105 -6 145 14 54 37 53 57 -3 24 -70 -3 -149 -76 -220 -45 -43 -50 -55
-24 -55 9 0 42 26 73 58 42 43 60 70 68 104 20 78 15 127 -17 183 -46 80 -55
84 -90 35z"/>
<path d="M1987 1287 c-44 -67 -42 -148 6 -218 36 -54 129 -149 138 -143 18 11
8 32 -47 95 -80 92 -99 132 -85 181 7 21 16 38 22 38 16 0 29 -47 29 -104 0
-35 5 -58 15 -66 20 -17 29 8 30 80 0 40 -7 69 -26 105 -29 58 -58 69 -82 32z"/>
<path d="M1313 1179 c-17 -5 -43 -23 -57 -40 -50 -59 -26 -178 46 -232 42 -31
69 -39 88 -26 13 8 11 12 -9 27 -79 58 -103 87 -108 135 -5 41 -2 52 17 72 13
14 29 25 37 25 23 0 14 -30 -18 -60 -30 -27 -32 -50 -5 -50 6 0 26 15 43 33
37 39 49 89 27 112 -17 17 -17 17 -61 4z"/>
<path d="M3448 1165 c-15 -32 3 -75 49 -115 29 -26 41 -30 91 -30 31 0 64 6
73 13 17 13 59 76 59 90 0 19 -30 3 -54 -28 -25 -32 -32 -35 -77 -35 -40 0
-55 5 -74 25 -29 28 -32 55 -7 55 11 0 25 -14 35 -35 9 -19 24 -35 32 -35 45
0 13 83 -40 106 -50 20 -74 18 -87 -11z"/>
<path d="M3193 1134 c-35 -15 6 -153 58 -201 35 -31 115 -63 160 -63 44 0 103
21 132 48 30 27 50 73 38 85 -7 7 -21 -3 -47 -31 -43 -48 -86 -65 -141 -56
-82 13 -168 87 -161 139 9 59 116 1 139 -75 7 -22 18 -41 26 -44 37 -15 20 72
-24 125 -41 48 -142 89 -180 73z"/>
<path d="M1525 1108 c-54 -28 -74 -46 -97 -92 -23 -46 -22 -151 2 -201 28 -56
118 -99 185 -88 42 7 48 33 8 34 -51 1 -116 33 -140 68 -18 27 -23 48 -23 99
0 64 1 66 45 109 81 77 130 44 65 -44 -17 -23 -44 -46 -60 -52 -29 -10 -42
-43 -21 -55 15 -9 98 51 125 91 31 45 50 106 41 133 -9 27 -77 26 -130 -2z"/>
<path d="M2436 1061 c-14 -21 171 -145 200 -134 26 10 15 21 -74 77 -101 64
-118 71 -126 57z"/>
<path d="M1952 993 c-53 -36 -69 -73 -34 -73 23 0 102 66 102 85 0 27 -18 24
-68 -12z"/>
<path d="M2171 939 c-30 -21 -60 -39 -68 -39 -7 0 -31 12 -53 26 -37 25 -70
27 -70 5 0 -13 58 -60 96 -79 30 -14 34 -13 66 9 68 47 118 92 118 105 0 24
-33 14 -89 -27z"/>
<path d="M2893 949 c-9 -9 -4 -22 21 -53 52 -64 68 -103 75 -187 4 -43 9 -81
13 -84 17 -17 150 77 141 100 -7 20 -20 19 -55 -6 -16 -12 -33 -18 -38 -13 -4
5 -17 41 -30 79 -23 75 -71 160 -96 169 -20 8 -18 8 -31 -5z"/>
<path d="M1705 922 c-47 -29 -59 -49 -58 -101 1 -75 59 -154 136 -186 47 -19
57 -14 57 33 0 21 8 68 19 105 18 65 18 69 1 90 l-18 22 -12 -30 c-6 -16 -18
-56 -27 -90 -9 -33 -19 -63 -23 -67 -3 -5 -24 10 -45 32 -32 33 -40 48 -40 79
0 38 26 81 48 81 13 0 0 -60 -18 -80 -8 -9 -15 -22 -15 -28 0 -21 28 -13 55
15 25 28 34 88 19 127 -8 21 -42 20 -79 -2z"/>
<path d="M3050 914 c-13 -34 -3 -87 23 -120 71 -91 279 -83 325 12 12 26 13
37 4 46 -9 9 -19 5 -44 -19 -69 -65 -152 -82 -215 -43 -39 23 -67 64 -59 86
10 25 29 11 53 -39 25 -52 40 -59 49 -23 19 77 -110 171 -136 100z"/>
<path d="M2184 875 c-3 -8 2 -25 13 -38 25 -32 165 -157 175 -157 5 0 12 8 15
17 5 13 -17 40 -87 105 -51 48 -97 88 -102 88 -5 0 -11 -7 -14 -15z"/>
<path d="M2837 822 c-78 -73 -132 -110 -237 -162 -83 -42 -83 -42 -118 -26
-39 19 -58 10 -48 -21 7 -23 46 -43 83 -43 30 0 172 74 258 136 83 59 159 138
152 158 -10 26 -24 19 -90 -42z"/>
<path d="M2903 773 c-15 -5 -93 -102 -93 -114 0 -16 37 -9 64 12 23 18 27 19
32 5 9 -23 -14 -46 -43 -46 -14 0 -50 7 -80 16 -43 12 -58 13 -66 4 -9 -9 -8
-15 5 -23 14 -9 2 -17 -70 -51 -82 -37 -94 -40 -204 -44 -100 -4 -127 -1 -189
18 -107 32 -154 59 -251 144 -47 42 -91 76 -96 76 -12 0 -32 -76 -32 -119 0
-18 9 -40 20 -51 21 -21 74 -27 99 -11 21 13 -2 39 -37 43 -22 2 -28 9 -30 33
l-3 30 43 -41 c137 -132 324 -191 522 -166 142 18 276 72 262 107 -3 8 24 10
89 7 108 -5 111 -2 100 93 -8 58 -22 86 -42 78z"/>
<path d="M2402 685 c-40 -36 -78 -65 -85 -65 -7 0 -22 7 -33 15 -21 16 -90 20
-99 5 -7 -12 107 -70 138 -70 30 0 181 146 173 166 -9 23 -19 17 -94 -51z"/>
</g>
</svg>
