<?xml version="1.0" standalone="no"?>
<!DOCTYPE svg PUBLIC "-//W3C//DTD SVG 20010904//EN"
 "http://www.w3.org/TR/2001/REC-SVG-20010904/DTD/svg10.dtd">
<svg version="1.0" xmlns="http://www.w3.org/2000/svg"
 width="453.000000pt" height="261.000000pt" viewBox="0 0 453.000000 261.000000"
 preserveAspectRatio="xMidYMid meet">

<g transform="translate(0.000000,261.000000) scale(0.100000,-0.100000)"
fill="#000000" stroke="none">
<path d="M2833 2540 c-26 -15 -38 -17 -61 -9 -36 12 -218 -13 -238 -33 -16
-15 -34 -102 -34 -159 0 -36 4 -42 56 -76 l56 -37 -38 -17 c-22 -9 -50 -29
-64 -44 -22 -23 -25 -36 -25 -101 0 -70 -1 -75 -20 -69 -161 44 -354 19 -481
-63 -92 -61 -148 -133 -185 -239 -58 -169 -24 -312 111 -466 165 -187 171
-261 30 -358 -129 -88 -280 -91 -364 -8 l-39 39 5 68 c4 56 13 84 52 157 49
95 57 141 30 185 -10 16 -13 18 -8 5 22 -60 17 -91 -29 -171 -90 -156 -95
-246 -17 -316 128 -114 400 -44 475 122 25 56 9 125 -48 202 -23 31 -64 87
-91 123 -70 96 -95 163 -96 256 0 189 115 358 286 421 81 29 255 37 343 14 93
-24 186 -74 257 -139 138 -127 168 -290 83 -459 -38 -74 -72 -113 -177 -197
-91 -72 -116 -100 -151 -168 -30 -59 -27 -60 22 -5 23 26 84 81 136 122 156
124 228 227 251 361 32 181 -72 359 -269 463 -38 20 -72 43 -75 52 -3 9 -6 37
-6 63 0 59 29 106 82 134 38 19 38 19 73 -3 l35 -22 -30 -34 c-16 -19 -30 -42
-29 -52 0 -15 1 -15 12 2 33 51 43 57 136 76 150 31 195 48 209 78 6 15 21 39
33 53 50 62 28 172 -47 239 -42 36 -101 41 -151 10z m133 -15 c48 -31 86 -167
55 -198 -8 -8 -11 1 -11 33 l0 45 -92 50 c-51 28 -92 55 -92 60 3 34 93 40
140 10z m-99 -69 c51 -28 93 -53 93 -56 0 -3 -42 -13 -92 -22 l-93 -16 -80 45
c-44 24 -93 55 -109 68 l-29 23 69 7 c38 3 78 7 89 9 32 5 54 -4 152 -58z
m-200 -60 l82 -51 -6 -70 c-3 -38 -8 -73 -12 -77 -3 -4 -53 20 -110 53 l-103
61 7 56 c3 32 9 67 12 79 6 27 6 27 130 -51z"/>
<path d="M2691 1961 c13 -19 48 -62 78 -95 221 -246 238 -452 59 -681 -22 -27
-82 -94 -135 -149 -52 -54 -92 -100 -90 -103 10 -10 260 244 301 306 100 151
110 292 33 451 -24 50 -60 94 -150 185 -66 66 -109 105 -96 86z"/>
<path d="M1500 1605 c-41 -13 -87 -28 -101 -33 -31 -12 -82 -59 -98 -89 -15
-30 -14 -89 4 -122 13 -26 68 -61 95 -61 28 0 94 -47 106 -75 l13 -30 1 26 c0
41 -47 84 -111 102 -31 9 -62 25 -71 34 -22 25 -30 84 -17 121 19 56 39 34 39
-42 0 -49 7 -57 94 -109 68 -41 71 -41 202 31 90 49 94 55 94 163 l0 47 -62
25 c-91 37 -105 38 -188 12z m152 -23 c26 -10 49 -20 52 -23 3 -3 -37 -23 -89
-44 l-94 -38 -65 34 c-36 18 -62 36 -60 39 12 12 142 49 174 49 19 1 56 -7 82
-17z m68 -100 l0 -58 -89 -47 c-48 -26 -91 -47 -95 -47 -4 0 -6 30 -4 66 l3
66 90 38 c50 21 91 39 93 39 1 1 2 -25 2 -57z"/>
<path d="M50 1195 l0 -148 86 5 c74 4 88 8 110 30 52 51 54 166 3 222 -26 29
-32 31 -113 35 l-86 3 0 -147z m171 86 c21 -17 24 -28 24 -86 0 -85 -19 -105
-101 -105 l-54 0 0 105 0 105 54 0 c38 0 61 -6 77 -19z"/>
<path d="M760 1195 c0 -122 2 -145 15 -145 10 0 15 10 15 34 0 80 25 86 68 16
17 -27 38 -50 47 -50 21 0 20 3 -25 73 l-39 62 36 38 c30 30 33 37 18 37 -10
0 -33 -18 -52 -40 -19 -22 -39 -40 -44 -40 -5 0 -9 36 -9 80 0 64 -3 80 -15
80 -13 0 -15 -23 -15 -145z"/>
<path d="M2147 1289 c7 -27 29 -35 49 -18 39 32 61 -69 24 -109 -45 -48 -114
-39 -142 18 -15 28 -18 31 -18 13 0 -81 135 -104 179 -31 l19 29 6 -35 c12
-63 92 -90 152 -51 57 37 57 121 1 155 -44 27 -77 27 -70 -1 7 -27 29 -35 49
-18 14 11 18 10 30 -6 40 -54 -3 -135 -71 -135 -53 0 -89 39 -81 88 4 26 2 32
-4 22 -8 -13 -10 -12 -10 3 0 48 -50 97 -100 97 -13 0 -17 -5 -13 -21z"/>
<path d="M375 1248 c-34 -20 -44 -41 -45 -94 0 -74 48 -117 115 -100 44 11 65
44 65 102 0 46 -4 55 -31 78 -32 28 -71 33 -104 14z m87 -35 c23 -21 24 -89 1
-115 -20 -22 -61 -23 -85 -1 -23 21 -24 89 -1 115 20 22 61 23 85 1z"/>
<path d="M583 1236 c-25 -21 -28 -31 -28 -81 0 -50 3 -60 28 -81 15 -13 39
-24 53 -24 26 0 84 48 84 69 0 20 -28 11 -44 -14 -19 -29 -57 -33 -77 -8 -18
21 -18 95 0 116 19 23 58 21 73 -3 15 -23 38 -27 38 -6 0 20 -48 56 -76 56
-12 0 -36 -11 -51 -24z"/>
<path d="M1000 1247 c-35 -18 -52 -55 -47 -106 6 -53 31 -81 83 -88 30 -4 45
0 67 17 15 12 27 26 27 31 0 14 -26 11 -40 -6 -13 -16 -57 -20 -76 -7 -11 7
-34 45 -34 56 0 3 36 6 80 6 48 0 80 4 80 10 0 6 -7 26 -15 45 -20 50 -74 68
-125 42z m94 -39 c15 -25 5 -29 -58 -26 l-57 3 17 23 c12 18 24 22 51 20 20
-2 41 -10 47 -20z"/>
<path d="M1180 1155 c0 -98 1 -105 20 -105 18 0 20 7 20 78 0 80 9 102 41 102
10 0 21 5 24 10 10 17 -26 24 -48 10 -15 -9 -22 -10 -25 -1 -2 6 -10 11 -18
11 -11 0 -14 -21 -14 -105z"/>
<path d="M2913 1164 c-17 -7 -34 -18 -37 -23 -4 -5 8 -3 24 6 79 39 173 24
244 -38 52 -46 76 -100 83 -189 7 -82 -16 -166 -57 -213 -36 -41 -122 -88
-214 -116 -105 -32 -113 -30 -118 28 l-3 49 60 6 c83 8 162 50 200 104 40 59
47 151 15 217 -35 72 -131 116 -188 86 -9 -4 -34 -12 -56 -15 -37 -7 -38 -6
-33 16 6 22 6 22 -8 3 -23 -33 -33 -43 -47 -47 -9 -3 -12 -24 -10 -74 1 -38 4
-76 7 -85 3 -9 47 -35 98 -58 l92 -41 54 20 c29 12 57 20 62 18 16 -6 -43 -68
-83 -89 -22 -11 -70 -23 -108 -26 -62 -5 -68 -4 -74 15 -12 36 -89 104 -153
134 -58 27 -112 36 -168 26 -27 -4 -65 -56 -65 -88 0 -56 86 -95 110 -50 11
20 11 20 38 2 15 -11 39 -22 54 -26 31 -7 41 -33 36 -87 l-3 -34 -64 2 c-126
3 -227 83 -238 188 -3 26 -9 41 -13 35 -8 -13 11 -115 28 -146 31 -58 136
-114 213 -114 44 0 43 -17 -3 -41 -131 -68 -273 24 -272 176 0 40 -2 52 -7 35
-41 -143 81 -288 225 -265 81 13 155 73 171 138 15 59 -22 139 -79 169 -21 11
-21 11 -2 -11 25 -28 12 -27 -39 4 l-43 24 -6 -29 c-4 -24 -11 -30 -31 -30
-14 0 -34 9 -46 21 -24 24 -18 54 17 87 71 64 273 -25 319 -140 20 -50 22
-130 6 -181 -14 -41 -87 -112 -137 -133 -31 -13 -38 -13 -76 7 -92 47 -112 50
-183 28 l-66 -20 -30 22 c-39 28 -106 129 -120 183 -15 55 -7 173 14 215 9 19
15 36 12 39 -2 3 -7 -3 -11 -12 -3 -9 -10 -14 -14 -11 -4 3 -22 -11 -39 -30
-38 -43 -40 -82 -11 -203 45 -189 10 -271 -132 -301 -79 -17 -226 27 -315 95
-44 34 -42 23 4 -20 53 -49 168 -105 229 -113 142 -16 273 77 274 195 l0 32
58 -46 c31 -26 59 -49 62 -51 3 -3 -3 -9 -13 -14 -18 -11 -23 -59 -11 -119 8
-37 66 -87 193 -163 l79 -49 96 57 c104 61 111 72 104 160 -3 38 -6 41 -63 68
l-60 29 46 23 c50 26 102 79 126 131 14 29 22 34 62 39 187 23 297 82 354 189
19 36 22 60 25 188 l4 146 -30 7 c-17 3 -43 17 -59 31 -53 47 -98 64 -165 63
-35 0 -77 -7 -95 -15z m127 -115 c23 -17 38 -34 34 -38 -14 -12 -93 -41 -112
-41 -30 0 -168 58 -152 64 21 7 162 44 176 45 6 1 30 -13 54 -30z m65 -107
c10 -58 -4 -81 -66 -107 -29 -13 -57 -21 -60 -19 -3 2 -7 30 -8 64 -2 66 -7
60 89 98 33 13 37 9 45 -36z m-926 -144 c-7 -12 -18 -43 -25 -68 l-12 -45 -1
46 c-1 33 5 54 20 73 25 32 36 28 18 -6z m415 -437 l118 -58 -66 -37 c-37 -21
-70 -36 -74 -34 -58 26 -252 131 -252 137 0 8 115 49 140 50 8 0 68 -26 134
-58z m-101 -115 l67 -37 0 -61 c0 -71 6 -71 -117 8 -128 83 -133 89 -133 145
l0 48 58 -33 c31 -18 87 -50 125 -70z"/>
<path d="M1461 1092 c-46 -72 -71 -154 -71 -234 0 -119 48 -178 179 -218 113
-35 251 -20 371 40 33 16 61 30 64 30 8 0 18 -129 12 -155 -10 -37 -61 -65
-122 -65 -65 0 -118 19 -208 74 -91 55 -136 69 -197 64 -121 -12 -195 -148
-139 -258 23 -45 74 -87 116 -96 40 -8 84 27 84 66 0 21 -9 36 -35 56 -64 49
-68 87 -11 103 25 8 27 9 8 10 -73 3 -84 -58 -22 -119 45 -44 47 -51 23 -75
-21 -21 -68 -13 -101 18 -29 26 -64 99 -58 119 2 7 7 25 10 40 9 39 61 95 101
108 47 15 103 -1 192 -56 139 -86 209 -105 296 -80 98 29 114 69 90 232 -8 61
-13 123 -9 137 3 14 25 45 48 68 43 42 43 42 9 23 -52 -29 -91 -89 -91 -140 0
-37 -4 -45 -33 -62 -41 -26 -163 -60 -242 -68 -115 -12 -245 40 -289 116 -40
67 -21 221 41 328 33 57 22 53 -16 -6z"/>
</g>
</svg>
